<svg width="48" height="48" viewBox="0 0 48 48" fill="none" xmlns="http://www.w3.org/2000/svg">
<rect width="48" height="48" rx="24" fill="#C2D1D9"/>
<path fill-rule="evenodd" clip-rule="evenodd" d="M8.70711 23.2929C8.31658 23.6834 8.31658 24.3166 8.70711 24.7071L10.1135 26.1135C10.5038 26.5038 11.1365 26.5041 11.5271 26.1142L22 15.66V39C22 39.5523 22.4477 40 23 40H25C25.5523 40 26 39.5523 26 39V15.66L36.4729 26.1142C36.8635 26.5041 37.4962 26.5038 37.8865 26.1135L39.2929 24.7071C39.6834 24.3166 39.6834 23.6834 39.2929 23.2929L24 8L8.70711 23.2929Z" fill="black" fill-opacity="0.7"/>
<mask id="mask0_15_11124" style="mask-type:luminance" maskUnits="userSpaceOnUse" x="8" y="8" width="32" height="32">
<path fill-rule="evenodd" clip-rule="evenodd" d="M8.70711 23.2929C8.31658 23.6834 8.31658 24.3166 8.70711 24.7071L10.1135 26.1135C10.5038 26.5038 11.1365 26.5041 11.5271 26.1142L22 15.66V39C22 39.5523 22.4477 40 23 40H25C25.5523 40 26 39.5523 26 39V15.66L36.4729 26.1142C36.8635 26.5041 37.4962 26.5038 37.8865 26.1135L39.2929 24.7071C39.6834 24.3166 39.6834 23.6834 39.2929 23.2929L24 8L8.70711 23.2929Z" fill="white"/>
</mask>
<g mask="url(#mask0_15_11124)">
<rect width="48" height="48" fill="#424B5A"/>
</g>
</svg>
