<svg width="48" height="48" viewBox="0 0 48 48" fill="none" xmlns="http://www.w3.org/2000/svg">
<path fill-rule="evenodd" clip-rule="evenodd" d="M27.293 12.7071C27.6835 12.3166 28.3167 12.3166 28.7072 12.7071L30.1137 14.1137C30.504 14.5039 30.5043 15.1365 30.1145 15.5271L21.6601 24L30.1145 32.4729C30.5043 32.8635 30.504 33.4961 30.1137 33.8863L28.7072 35.2929C28.3167 35.6834 27.6835 35.6834 27.293 35.2929L16.0001 24L27.293 12.7071Z" fill="white"/>
<mask id="mask0_15_11090" style="mask-type:luminance" maskUnits="userSpaceOnUse" x="16" y="12" width="15" height="24">
<path fill-rule="evenodd" clip-rule="evenodd" d="M27.293 12.7071C27.6835 12.3166 28.3167 12.3166 28.7072 12.7071L30.1137 14.1137C30.504 14.5039 30.5043 15.1365 30.1145 15.5271L21.6601 24L30.1145 32.4729C30.5043 32.8635 30.504 33.4961 30.1137 33.8863L28.7072 35.2929C28.3167 35.6834 27.6835 35.6834 27.293 35.2929L16.0001 24L27.293 12.7071Z" fill="white"/>
</mask>
<g mask="url(#mask0_15_11090)">
<rect width="48" height="48" fill="white"/>
</g>
</svg>
