<svg width="20" height="19" viewBox="0 0 20 19" fill="none"
     xmlns="http://www.w3.org/2000/svg">
    <path d="M10.0007 0.0927429C4.9379 0.0927429 0.833984 4.19666 0.833984 9.25941C0.833984 14.3222 4.9379 18.4261 10.0007 18.4261C15.0634 18.4261 19.1673 14.3222 19.1673 9.25941C19.1673 4.19666 15.0634 0.0927429 10.0007 0.0927429Z"
          fill="#919191"/>
    <path d="M11.2404 11.6889H13.6127L13.9854 9.27902H11.2404V7.96177C11.2404 6.96077 11.5677 6.07298 12.504 6.07298H14.0087V3.97014C13.7443 3.93439 13.1851 3.85648 12.1287 3.85648C9.92224 3.85648 8.62883 5.02156 8.62883 7.67623V9.27948H6.36053V11.6894H8.62837V18.3132C9.07753 18.3801 9.53266 18.426 9.9997 18.426C10.4218 18.426 10.8339 18.3875 11.2404 18.3325V11.6889Z"
          fill="white"/>
</svg>
