<svg width="18" height="19" viewBox="0 0 18 19" fill="none"
     xmlns="http://www.w3.org/2000/svg">
    <path d="M5.33191 0.459259C2.50198 0.459259 0.200012 2.76336 0.200012 5.59402V12.9274C0.200012 15.7573 2.50411 18.0593 5.33478 18.0593H12.6681C15.498 18.0593 17.8 15.7552 17.8 12.9245V5.59116C17.8 2.76123 15.4959 0.459259 12.6652 0.459259H5.33191ZM14.1333 3.39259C14.5381 3.39259 14.8667 3.72113 14.8667 4.12593C14.8667 4.53073 14.5381 4.85926 14.1333 4.85926C13.7285 4.85926 13.4 4.53073 13.4 4.12593C13.4 3.72113 13.7285 3.39259 14.1333 3.39259ZM9.00001 4.85926C11.4266 4.85926 13.4 6.83266 13.4 9.25926C13.4 11.6859 11.4266 13.6593 9.00001 13.6593C6.57341 13.6593 4.60001 11.6859 4.60001 9.25926C4.60001 6.83266 6.57341 4.85926 9.00001 4.85926ZM9.00001 6.32593C8.22204 6.32593 7.47594 6.63497 6.92583 7.18508C6.37573 7.73519 6.06668 8.48129 6.06668 9.25926C6.06668 10.0372 6.37573 10.7833 6.92583 11.3334C7.47594 11.8835 8.22204 12.1926 9.00001 12.1926C9.77798 12.1926 10.5241 11.8835 11.0742 11.3334C11.6243 10.7833 11.9333 10.0372 11.9333 9.25926C11.9333 8.48129 11.6243 7.73519 11.0742 7.18508C10.5241 6.63497 9.77798 6.32593 9.00001 6.32593Z"
          fill="#919191"/>
</svg>
