<svg width="25" height="24" viewBox="0 0 25 24" fill="none" xmlns="http://www.w3.org/2000/svg">
<path d="M15.3055 12.0056H13.3449C13.3449 15.1408 13.3449 19 13.3449 19H10.4395C10.4395 19 10.4395 15.1782 10.4395 12.0056H9.05847V9.53354H10.4395V7.93458C10.4395 6.78942 10.9832 5 13.3716 5L15.5245 5.00826V7.40791C15.5245 7.40791 14.2162 7.40791 13.9618 7.40791C13.7075 7.40791 13.3458 7.53521 13.3458 8.08131V9.53403H15.5594L15.3055 12.0056Z" fill="#424B5A"/>
<mask id="mask0_7_16442" style="mask-type:luminance" maskUnits="userSpaceOnUse" x="9" y="5" width="7" height="14">
<path d="M15.3055 12.0056H13.3449C13.3449 15.1408 13.3449 19 13.3449 19H10.4395C10.4395 19 10.4395 15.1782 10.4395 12.0056H9.05847V9.53354H10.4395V7.93458C10.4395 6.78942 10.9832 5 13.3716 5L15.5245 5.00826V7.40791C15.5245 7.40791 14.2162 7.40791 13.9618 7.40791C13.7075 7.40791 13.3458 7.53521 13.3458 8.08131V9.53403H15.5594L15.3055 12.0056Z" fill="white"/>
</mask>
<g mask="url(#mask0_7_16442)">
<rect x="0.0662842" width="23.9791" height="24" fill="#424B5A"/>
</g>
</svg>
