<svg width="25" height="24" viewBox="0 0 25 24" fill="none" xmlns="http://www.w3.org/2000/svg">
<path fill-rule="evenodd" clip-rule="evenodd" d="M19.0806 16.2941V10.563V7.70541C19.0806 6.21314 17.868 5 16.377 5H7.79631C6.30535 5 5.09326 6.21314 5.09326 7.70541V10.563V16.2941C5.09326 17.7869 6.30535 19 7.79631 19H16.3775C17.868 19 19.0806 17.7869 19.0806 16.2941ZM14.5492 11.9993C14.5492 13.3582 13.4431 14.4632 12.0864 14.4632C10.7292 14.4632 9.6241 13.3577 9.62559 11.9988C9.62608 11.4623 9.79995 10.9671 10.0912 10.5625C10.5395 9.94182 11.2661 9.53529 12.0879 9.53529C12.9092 9.53529 13.6363 9.94231 14.0836 10.563C14.3739 10.9676 14.5492 11.4628 14.5492 11.9993ZM17.4623 8.98499V6.91961V6.61224L17.1537 6.61323L15.0911 6.61967L15.099 8.99292L17.4623 8.98499ZM12.0869 15.8281C14.1965 15.8281 15.9124 14.1097 15.9124 11.9993C15.9124 11.4916 15.8099 11.0062 15.6281 10.563H17.7169V16.2941C17.7169 17.0348 17.1151 17.6347 16.3765 17.6347H7.79581C7.05628 17.6347 6.45544 17.0348 6.45544 16.2941V10.563H8.54328C8.36297 11.0062 8.26193 11.4916 8.26193 11.9993C8.26193 14.1097 9.97727 15.8281 12.0869 15.8281Z" fill="#1F2432"/>
<mask id="mask0_7_16447" style="mask-type:luminance" maskUnits="userSpaceOnUse" x="5" y="5" width="15" height="14">
<path fill-rule="evenodd" clip-rule="evenodd" d="M19.0806 16.2941V10.563V7.70541C19.0806 6.21314 17.868 5 16.377 5H7.79631C6.30535 5 5.09326 6.21314 5.09326 7.70541V10.563V16.2941C5.09326 17.7869 6.30535 19 7.79631 19H16.3775C17.868 19 19.0806 17.7869 19.0806 16.2941ZM14.5492 11.9993C14.5492 13.3582 13.4431 14.4632 12.0864 14.4632C10.7292 14.4632 9.6241 13.3577 9.62559 11.9988C9.62608 11.4623 9.79995 10.9671 10.0912 10.5625C10.5395 9.94182 11.2661 9.53529 12.0879 9.53529C12.9092 9.53529 13.6363 9.94231 14.0836 10.563C14.3739 10.9676 14.5492 11.4628 14.5492 11.9993ZM17.4623 8.98499V6.91961V6.61224L17.1537 6.61323L15.0911 6.61967L15.099 8.99292L17.4623 8.98499ZM12.0869 15.8281C14.1965 15.8281 15.9124 14.1097 15.9124 11.9993C15.9124 11.4916 15.8099 11.0062 15.6281 10.563H17.7169V16.2941C17.7169 17.0348 17.1151 17.6347 16.3765 17.6347H7.79581C7.05628 17.6347 6.45544 17.0348 6.45544 16.2941V10.563H8.54328C8.36297 11.0062 8.26193 11.4916 8.26193 11.9993C8.26193 14.1097 9.97727 15.8281 12.0869 15.8281Z" fill="white"/>
</mask>
<g mask="url(#mask0_7_16447)">
<rect x="0.0976562" width="23.9791" height="24" fill="#DADADA"/>
</g>
</svg>
